<svg width="800" height="500" viewBox="0 0 800 500" xmlns="http://www.w3.org/2000/svg">
  <!-- Background -->
  <rect width="800" height="500" fill="#f8f9fa" rx="8"/>
  
  <!-- Title -->
  <text x="400" y="30" text-anchor="middle" font-size="20" font-weight="bold" fill="#333">胶带行业知识树</text>
  <text x="400" y="50" text-anchor="middle" font-size="14" fill="#666">Adhesive Tape Industry Knowledge Tree</text>
  
  <!-- Tree Trunk (Root) -->
  <rect x="350" y="80" width="100" height="40" fill="#0066cc" rx="8"/>
  <text x="400" y="105" text-anchor="middle" font-size="14" fill="#fff" font-weight="bold">胶带行业</text>
  
  <!-- Main Branches -->
  <!-- Branch 1: Fundamental Science -->
  <line x1="400" y1="120" x2="150" y2="180" stroke="#0066cc" stroke-width="3"/>
  <rect x="100" y="180" width="150" height="40" fill="#4caf50" rx="8"/>
  <text x="175" y="205" text-anchor="middle" font-size="12" fill="#fff" font-weight="bold">基础科学</text>
  <text x="175" y="220" text-anchor="middle" font-size="10" fill="#e0e0e0">Fundamental Science</text>
  
  <!-- Branch 2: Production Process -->
  <line x1="400" y1="120" x2="350" y2="180" stroke="#0066cc" stroke-width="3"/>
  <rect x="300" y="180" width="150" height="40" fill="#ff9800" rx="8"/>
  <text x="375" y="205" text-anchor="middle" font-size="12" fill="#fff" font-weight="bold">生产工艺</text>
  <text x="375" y="220" text-anchor="middle" font-size="10" fill="#e0e0e0">Production Process</text>
  
  <!-- Branch 3: Application Fields -->
  <line x1="400" y1="120" x2="550" y2="180" stroke="#0066cc" stroke-width="3"/>
  <rect x="500" y="180" width="150" height="40" fill="#f44336" rx="8"/>
  <text x="575" y="205" text-anchor="middle" font-size="12" fill="#fff" font-weight="bold">应用领域</text>
  <text x="575" y="220" text-anchor="middle" font-size="10" fill="#e0e0e0">Application Fields</text>
  
  <!-- Branch 4: Industry Management -->
  <line x1="400" y1="120" x2="700" y2="180" stroke="#0066cc" stroke-width="3"/>
  <rect x="650" y="180" width="150" height="40" fill="#9c27b0" rx="8"/>
  <text x="725" y="205" text-anchor="middle" font-size="12" fill="#fff" font-weight="bold">行业管理</text>
  <text x="725" y="220" text-anchor="middle" font-size="10" fill="#e0e0e0">Industry Management</text>
  
  <!-- Sub-branches for Fundamental Science -->
  <line x1="175" y1="220" x2="100" y2="260" stroke="#4caf50" stroke-width="2"/>
  <rect x="60" y="260" width="120" height="30" fill="#81c784" rx="4"/>
  <text x="120" y="280" text-anchor="middle" font-size="10" fill="#fff">粘合剂</text>
  
  <line x1="175" y1="220" x2="175" y2="260" stroke="#4caf50" stroke-width="2"/>
  <rect x="140" y="260" width="120" height="30" fill="#81c784" rx="4"/>
  <text x="200" y="280" text-anchor="middle" font-size="10" fill="#fff">压敏胶</text>
  
  <line x1="175" y1="220" x2="250" y2="260" stroke="#4caf50" stroke-width="2"/>
  <rect x="220" y="260" width="120" height="30" fill="#81c784" rx="4"/>
  <text x="280" y="280" text-anchor="middle" font-size="10" fill="#fff">基材</text>
  
  <!-- Sub-branches for Production Process -->
  <line x1="375" y1="220" x2="325" y2="260" stroke="#ff9800" stroke-width="2"/>
  <rect x="280" y="260" width="120" height="30" fill="#ffb74d" rx="4"/>
  <text x="340" y="280" text-anchor="middle" font-size="10" fill="#fff">涂布设备</text>
  
  <line x1="375" y1="220" x2="375" y2="260" stroke="#ff9800" stroke-width="2"/>
  <rect x="340" y="260" width="120" height="30" fill="#ffb74d" rx="4"/>
  <text x="400" y="280" text-anchor="middle" font-size="10" fill="#fff">干燥工艺</text>
  
  <line x1="375" y1="220" x2="425" y2="260" stroke="#ff9800" stroke-width="2"/>
  <rect x="390" y="260" width="120" height="30" fill="#ffb74d" rx="4"/>
  <text x="450" y="280" text-anchor="middle" font-size="10" fill="#fff">复合工艺</text>
  
  <!-- Sub-branches for Application Fields -->
  <line x1="575" y1="220" x2="525" y2="260" stroke="#f44336" stroke-width="2"/>
  <rect x="490" y="260" width="120" height="30" fill="#e57373" rx="4"/>
  <text x="550" y="280" text-anchor="middle" font-size="10" fill="#fff">包装行业</text>
  
  <line x1="575" y1="220" x2="575" y2="260" stroke="#f44336" stroke-width="2"/>
  <rect x="540" y="260" width="120" height="30" fill="#e57373" rx="4"/>
  <text x="600" y="280" text-anchor="middle" font-size="10" fill="#fff">电子行业</text>
  
  <line x1="575" y1="220" x2="625" y2="260" stroke="#f44336" stroke-width="2"/>
  <rect x="590" y="260" width="120" height="30" fill="#e57373" rx="4"/>
  <text x="650" y="280" text-anchor="middle" font-size="10" fill="#fff">汽车行业</text>
  
  <!-- Sub-branches for Industry Management -->
  <line x1="725" y1="220" x2="675" y2="260" stroke="#9c27b0" stroke-width="2"/>
  <rect x="640" y="260" width="120" height="30" fill="#ba68c8" rx="4"/>
  <text x="700" y="280" text-anchor="middle" font-size="10" fill="#fff">质量控制</text>
  
  <line x1="725" y1="220" x2="725" y2="260" stroke="#9c27b0" stroke-width="2"/>
  <rect x="690" y="260" width="120" height="30" fill="#ba68c8" rx="4"/>
  <text x="750" y="280" text-anchor="middle" font-size="10" fill="#fff">安全生产</text>
  
  <line x1="725" y1="220" x2="775" y2="260" stroke="#9c27b0" stroke-width="2"/>
  <rect x="740" y="260" width="120" height="30" fill="#ba68c8" rx="4"/>
  <text x="800" y="280" text-anchor="middle" font-size="10" fill="#fff">环保可持续</text>
  
  <!-- Knowledge Leaves -->
  <!-- Leaves for Fundamental Science -->
  <circle cx="80" cy="320" r="15" fill="#a5d6a7"/>
  <text x="80" y="325" text-anchor="middle" font-size="8" fill="#333">01</text>
  
  <circle cx="120" cy="320" r="15" fill="#a5d6a7"/>
  <text x="120" y="325" text-anchor="middle" font-size="8" fill="#333">02</text>
  
  <circle cx="160" cy="320" r="15" fill="#a5d6a7"/>
  <text x="160" y="325" text-anchor="middle" font-size="8" fill="#333">03</text>
  
  <circle cx="200" cy="320" r="15" fill="#a5d6a7"/>
  <text x="200" y="325" text-anchor="middle" font-size="8" fill="#333">04</text>
  
  <circle cx="240" cy="320" r="15" fill="#a5d6a7"/>
  <text x="240" y="325" text-anchor="middle" font-size="8" fill="#333">05</text>
  
  <!-- Leaves for Production Process -->
  <circle cx="320" cy="320" r="15" fill="#ffcc80"/>
  <text x="320" y="325" text-anchor="middle" font-size="8" fill="#333">21</text>
  
  <circle cx="360" cy="320" r="15" fill="#ffcc80"/>
  <text x="360" y="325" text-anchor="middle" font-size="8" fill="#333">22</text>
  
  <circle cx="400" cy="320" r="15" fill="#ffcc80"/>
  <text x="400" y="325" text-anchor="middle" font-size="8" fill="#333">23</text>
  
  <circle cx="440" cy="320" r="15" fill="#ffcc80"/>
  <text x="440" y="325" text-anchor="middle" font-size="8" fill="#333">24</text>
  
  <circle cx="480" cy="320" r="15" fill="#ffcc80"/>
  <text x="480" y="325" text-anchor="middle" font-size="8" fill="#333">25</text>
  
  <!-- Leaves for Application Fields -->
  <circle cx="560" cy="320" r="15" fill="#ef9a9a"/>
  <text x="560" y="325" text-anchor="middle" font-size="8" fill="#333">47</text>
  
  <circle cx="600" cy="320" r="15" fill="#ef9a9a"/>
  <text x="600" y="325" text-anchor="middle" font-size="8" fill="#333">48</text>
  
  <circle cx="640" cy="320" r="15" fill="#ef9a9a"/>
  <text x="640" y="325" text-anchor="middle" font-size="8" fill="#333">49</text>
  
  <circle cx="680" cy="320" r="15" fill="#ef9a9a"/>
  <text x="680" y="325" text-anchor="middle" font-size="8" fill="#333">50</text>
  
  <circle cx="720" cy="320" r="15" fill="#ef9a9a"/>
  <text x="720" y="325" text-anchor="middle" font-size="8" fill="#333">51</text>
  
  <!-- Leaves for Industry Management -->
  <circle cx="760" cy="320" r="15" fill="#ce93d8"/>
  <text x="760" y="325" text-anchor="middle" font-size="8" fill="#333">69</text>
  
  <circle cx="800" cy="320" r="15" fill="#ce93d8"/>
  <text x="800" y="325" text-anchor="middle" font-size="8" fill="#333">70</text>
  
  <!-- Legend -->
  <rect x="50" y="380" width="15" height="15" fill="#0066cc" rx="2"/>
  <text x="70" y="392" font-size="10" fill="#666">胶带行业（根）</text>
  
  <rect x="150" y="380" width="15" height="15" fill="#4caf50" rx="2"/>
  <text x="170" y="392" font-size="10" fill="#666">基础科学</text>
  
  <rect x="230" y="380" width="15" height="15" fill="#ff9800" rx="2"/>
  <text x="250" y="392" font-size="10" fill="#666">生产工艺</text>
  
  <rect x="310" y="380" width="15" height="15" fill="#f44336" rx="2"/>
  <text x="330" y="392" font-size="10" fill="#666">应用领域</text>
  
  <rect x="390" y="380" width="15" height="15" fill="#9c27b0" rx="2"/>
  <text x="410" y="392" font-size="10" fill="#666">行业管理</text>
  
  <circle cx="500" cy="387" r="8" fill="#a5d6a7"/>
  <text x="515" y="392" font-size="10" fill="#666">知识叶片</text>
  
  <!-- Notes -->
  <text x="400" y="430" text-anchor="middle" font-size="10" fill="#999">注：知识树包含124个知识叶片，覆盖胶带行业全领域</text>
  <text x="400" y="450" text-anchor="middle" font-size="10" fill="#999">每个知识叶片包含定义、历史、示例、公式、内涵、外延等内容</text>
</svg>